<?xml version="1.0" standalone="no"?>
<!DOCTYPE svg PUBLIC "-//W3C//DTD SVG 20010904//EN"
 "http://www.w3.org/TR/2001/REC-SVG-20010904/DTD/svg10.dtd">
<svg version="1.0" xmlns="http://www.w3.org/2000/svg"
 width="512.000000pt" height="512.000000pt" viewBox="0 0 512.000000 512.000000"
 preserveAspectRatio="xMidYMid meet">
<metadata>
Created by potrace 1.14, written by Peter Selinger 2001-2017
</metadata>
<g transform="translate(0.000000,512.000000) scale(0.100000,-0.100000)"
fill="#000000" stroke="none">
<path d="M0 2560 l0 -2560 2560 0 2560 0 0 2560 0 2560 -2560 0 -2560 0 0
-2560z m2824 1466 c198 -38 411 -124 571 -231 200 -133 390 -346 480 -538 95
-202 53 -588 -102 -947 -42 -98 -150 -286 -208 -362 -79 -103 -225 -253 -326
-333 -145 -117 -453 -270 -584 -292 -16 -3 -34 -9 -40 -13 -9 -7 -46 -16 -155
-36 -14 -2 -63 -12 -110 -20 -97 -18 -90 -17 -265 -39 -106 -13 -309 -42 -655
-91 -99 -15 -230 112 -274 266 -28 98 -41 462 -41 1155 0 643 13 1049 36 1150
36 156 165 285 324 325 81 20 329 28 810 25 377 -2 464 -5 539 -19z"/>
</g>
</svg>
